<svg width="32" height="32" viewBox="0 0 32 32" fill="none" xmlns="http://www.w3.org/2000/svg" cleaned="true">
  <path fill-rule="evenodd" clip-rule="evenodd" d="M2 9C5.86599 9 9 5.86599 9 2L7 2C7 4.76142 4.76143 7 2 7L2 9ZM2 6C4.20914 6 6 4.20914 6 2L4 2C4 3.10457 3.10457 4 2 4L2 6ZM2 1C1.44772 1 1 1.44772 1 2C1 2.55228 1.44772 3 2 3C2.55228 3 3 2.55228 3 2C3 1.44772 2.55228 1 2 1Z" fill="#0E1B32"/>
  <path d="M11 24L14.5021 24.7004C15.3865 24.8773 16.2798 24.4404 16.6832 23.6337L17 23M25 26L24.2785 21.6709C24.1178 20.7065 23.2834 19.9997 22.3057 19.9997H20.306C19.0889 19.9997 18.154 18.9217 18.3261 17.7168L19 13M19 13L15.741 14.6295C15.2665 14.8667 14.9058 15.2827 14.738 15.7859L14 18M19 13L21.4142 15.414C21.7893 15.789 22.298 15.9997 22.8284 15.9997L25.5 15.9997" stroke="#0E1B32" stroke-width="3" stroke-linecap="round" stroke-linejoin="round"/>
  <circle cx="21" cy="8" r="3" fill="#0E1B32"/>
  <rect x="7" y="9" width="6" height="2" rx="1" fill="#D97126"/>
  <rect x="5" y="14" width="6" height="2" rx="1" fill="#D97126"/>
  <rect x="4" y="19" width="6" height="2" rx="1" fill="#D97126"/>
</svg>
