<svg width="32" height="32" viewBox="0 0 32 32" fill="none" xmlns="http://www.w3.org/2000/svg" cleaned="true">
  <path fill-rule="evenodd" clip-rule="evenodd" d="M2 9C5.86599 9 9 5.86599 9 2L7 2C7 4.76142 4.76143 7 2 7L2 9ZM2 6C4.20914 6 6 4.20914 6 2L4 2C4 3.10457 3.10457 4 2 4L2 6ZM2 1C1.44772 1 1 1.44772 1 2C1 2.55228 1.44772 3 2 3C2.55228 3 3 2.55228 3 2C3 1.44772 2.55228 1 2 1Z" fill="#0E1B32"/>
  <path d="M10 6H24V18V28H10V6Z" fill="#BCC7DC"/>
  <path d="M8 28H10M24 28H10M24 28V18M24 28H26M10 28V6H24V18M24 18H21" stroke="#0E1B32" stroke-width="2" stroke-linecap="round" stroke-linejoin="round"/>
</svg>
