<svg width="32" height="32" viewBox="0 0 32 32" fill="none" xmlns="http://www.w3.org/2000/svg" cleaned="true">
  <path fill-rule="evenodd" clip-rule="evenodd" d="M2 9C5.86599 9 9 5.86599 9 2L7 2C7 4.76142 4.76143 7 2 7L2 9ZM2 6C4.20914 6 6 4.20914 6 2L4 2C4 3.10457 3.10457 4 2 4L2 6ZM2 1C1.44772 1 1 1.44772 1 2C1 2.55228 1.44772 3 2 3C2.55228 3 3 2.55228 3 2C3 1.44772 2.55228 1 2 1Z" fill="#0E1B32"/>
  <path d="M10 6L19 2V6V15V28H10V6Z" fill="#D97126"/>
  <path d="M26 28C26.5523 28 27 27.5523 27 27C27 26.4477 26.5523 26 26 26V28ZM24 27H23C23 27.5523 23.4477 28 24 28V27ZM24 6H25C25 5.44772 24.5523 5 24 5V6ZM19 2H20C20 1.66149 19.8287 1.34597 19.5449 1.16151C19.2611 0.977051 18.9032 0.948708 18.5939 1.08619L19 2ZM10 6L9.59386 5.08619C9.23273 5.24669 9 5.60481 9 6H10ZM8 27C7.44772 27 7 27.4477 7 28C7 28.5523 7.44772 29 8 29V27ZM19 28V29C19.5523 29 20 28.5523 20 28H19ZM15.8356 14.5136C15.2908 14.6044 14.9228 15.1196 15.0136 15.6644C15.1044 16.2092 15.6196 16.5772 16.1644 16.4864L15.8356 14.5136ZM26 26H24V28H26V26ZM25 27V6H23V27H25ZM24 5H19V7H24V5ZM18.5939 1.08619L9.59386 5.08619L10.4061 6.91381L19.4061 2.91381L18.5939 1.08619ZM8 29H10V27H8V29ZM10 29H19V27H10V29ZM9 6V28H11V6H9ZM20 28V15H18V28H20ZM20 15V6H18V15H20ZM20 6V2H18V6H20ZM18.8356 14.0136L15.8356 14.5136L16.1644 16.4864L19.1644 15.9864L18.8356 14.0136Z" fill="#0E1B32"/>
  <rect x="20" y="6" width="4" height="22" fill="#0E1B32"/>
</svg>
