<svg width="32" height="32" viewBox="0 0 32 32" fill="none" xmlns="http://www.w3.org/2000/svg" cleaned="true">
  <path fill-rule="evenodd" clip-rule="evenodd" d="M2 9C5.86599 9 9 5.86599 9 2L7 2C7 4.76142 4.76143 7 2 7L2 9ZM2 6C4.20914 6 6 4.20914 6 2L4 2C4 3.10457 3.10457 4 2 4L2 6ZM2 1C1.44772 1 1 1.44772 1 2C1 2.55228 1.44772 3 2 3C2.55228 3 3 2.55228 3 2C3 1.44772 2.55228 1 2 1Z" fill="#0E1B32"/>
  <path d="M17 26L18.9551 20.1348C18.985 20.0451 19.0212 19.9575 19.0636 19.8729L20 18M20 18L20.9364 19.8729C20.9788 19.9575 21.015 20.0451 21.0449 20.1348L23 26M20 18L20 12M20 12L18.5963 12.7019C18.2092 12.8954 17.8954 13.2092 17.7019 13.5963L16 17M20 12L21.4037 12.7019C21.7908 12.8954 22.1046 13.2092 22.2982 13.5963L24 17" stroke="#0E1B32" stroke-width="3" stroke-linecap="round" stroke-linejoin="round"/>
  <circle cx="20" cy="7" r="3" fill="#0E1B32"/>
</svg>
