<svg width="32" height="32" viewBox="0 0 32 32" fill="none" xmlns="http://www.w3.org/2000/svg" cleaned="true">
  <mask id="TemperatureMeter_svg__path-1-inside-1_15792_12226" fill="white">
    <path fill-rule="evenodd" clip-rule="evenodd" d="M20 4C17.7909 4 16 5.79086 16 8V17.5278C14.7725 18.6264 14 20.223 14 22C14 25.3137 16.6863 28 20 28C23.3137 28 26 25.3137 26 22C26 20.223 25.2275 18.6264 24 17.5278V8C24 5.79086 22.2091 4 20 4Z"/>
  </mask>
  <path fill-rule="evenodd" clip-rule="evenodd" d="M20 4C17.7909 4 16 5.79086 16 8V17.5278C14.7725 18.6264 14 20.223 14 22C14 25.3137 16.6863 28 20 28C23.3137 28 26 25.3137 26 22C26 20.223 25.2275 18.6264 24 17.5278V8C24 5.79086 22.2091 4 20 4Z" fill="#BCC7DC"/>
  <path d="M16 17.5278L17.3338 19.0181L18 18.4218V17.5278H16ZM24 17.5278H22V18.4218L22.6662 19.0181L24 17.5278ZM18 8C18 6.89543 18.8954 6 20 6V2C16.6863 2 14 4.68629 14 8H18ZM18 17.5278V8H14V17.5278H18ZM16 22C16 20.8155 16.5123 19.7533 17.3338 19.0181L14.6662 16.0375C13.0327 17.4995 12 19.6305 12 22H16ZM20 26C17.7909 26 16 24.2091 16 22H12C12 26.4183 15.5817 30 20 30V26ZM24 22C24 24.2091 22.2091 26 20 26V30C24.4183 30 28 26.4183 28 22H24ZM22.6662 19.0181C23.4877 19.7533 24 20.8155 24 22H28C28 19.6305 26.9673 17.4995 25.3338 16.0375L22.6662 19.0181ZM22 8V17.5278H26V8H22ZM20 6C21.1046 6 22 6.89543 22 8H26C26 4.68629 23.3137 2 20 2V6Z" fill="#0E1B32" mask="url(#TemperatureMeter_svg__path-1-inside-1_15792_12226)"/>
  <circle cx="20" cy="22" r="2" fill="#0E1B32"/>
  <path d="M19 14C19 13.4477 19.4477 13 20 13C20.5523 13 21 13.4477 21 14V23H19V14Z" fill="#0E1B32"/>
  <g clip-path="url(#TemperatureMeter_svg__clip0_15792_12226)">
    <path fill-rule="evenodd" clip-rule="evenodd" d="M1.57324 22.0177C1.2571 21.9978 1 22.2565 1 22.5733C1 22.8586 1.21055 23.0981 1.48946 23.1585C2.48264 23.3737 3.39727 23.7997 4.18418 24.3874C4.55707 24.6658 5.08565 24.6641 5.41473 24.335C5.79243 23.9573 5.7372 23.3272 5.2671 23.0736C4.15562 22.474 2.90364 22.1013 1.57324 22.0177ZM7.37433 24.6461L7.35357 24.6254C7.3605 24.6323 7.36742 24.6392 7.37433 24.6461ZM9.00534 26.8829C8.72012 26.3294 7.98497 26.2648 7.54467 26.7051L7.04377 27.206C6.77083 27.4789 6.68556 27.8832 6.78136 28.2571C6.9241 28.8142 7 29.3981 7 29.9997C7 30.5292 7.40293 30.9997 7.93246 30.9997H9C9.55229 30.9997 10.0058 30.5506 9.94528 30.0016C9.82244 28.8882 9.49651 27.836 9.00534 26.8829Z" fill="#0E1B32"/>
    <path d="M7.79918 23.5058C8.25581 23.1934 8.80661 23.7442 8.49418 24.2008L4.13325 30.5745C3.80418 31.0554 3.1191 31.1191 2.70703 30.707L1.99992 29.9999L1.29281 29.2928C0.880829 28.8808 0.944493 28.1959 1.42535 27.8669L7.79918 23.5058Z" fill="#0E1B32"/>
  </g>
  <defs>
    <clipPath id="TemperatureMeter_svg__clip0_15792_12226">
      <rect width="10" height="9" fill="white" transform="translate(1 22)"/>
    </clipPath>
  </defs>
</svg>
