<svg width="32" height="32" viewBox="0 0 32 32" fill="none" xmlns="http://www.w3.org/2000/svg" cleaned="true">
  <mask id="WindowSensorV20_svg__path-1-inside-1_3134_8518" fill="white">
    <path d="M10 7C10 5.89543 10.8954 5 12 5H18.5H25C26.1046 5 27 5.89543 27 7V16V26C27 27.1046 26.1046 28 25 28H18.5H12C10.8954 28 10 27.1046 10 26V7Z"/>
  </mask>
  <path d="M10 7C10 5.89543 10.8954 5 12 5H18.5H25C26.1046 5 27 5.89543 27 7V16V26C27 27.1046 26.1046 28 25 28H18.5H12C10.8954 28 10 27.1046 10 26V7Z" fill="#BCC7DC"/>
  <path d="M27 15H11V17H27V15ZM17.5 5V28H19.5V5H17.5ZM12 26V7H8V26H12ZM25 7V16H29V7H25ZM25 16V26H29V16H25ZM12 7H18.5V3H12V7ZM18.5 7H25V3H18.5V7ZM25 26H18.5V30H25V26ZM18.5 26H12V30H18.5V26ZM8 26C8 28.2091 9.79086 30 12 30V26H12H8ZM25 26V30C27.2091 30 29 28.2091 29 26H25ZM29 7C29 4.79086 27.2091 3 25 3V7H29ZM12 7V7V3C9.79086 3 8 4.79086 8 7H12Z" fill="#0E1B32" mask="url(#WindowSensorV20_svg__path-1-inside-1_3134_8518)"/>
  <path d="M10 27L27 27" stroke="#0E1B32" stroke-width="2" stroke-linecap="round"/>
  <path fill-rule="evenodd" clip-rule="evenodd" d="M2 9C5.86599 9 9 5.86599 9 2L7 2C7 4.76142 4.76143 7 2 7L2 9ZM2 6C4.20914 6 6 4.20914 6 2L4 2C4 3.10457 3.10457 4 2 4L2 6ZM2 1C1.44772 1 1 1.44772 1 2C1 2.55228 1.44772 3 2 3C2.55228 3 3 2.55228 3 2C3 1.44772 2.55228 1 2 1Z" fill="#0E1B32"/>
</svg>
