<svg width="32" height="32" viewBox="0 0 32 32" fill="none" xmlns="http://www.w3.org/2000/svg" cleaned="true">
  <path d="M29 19.4C29 21.9576 26.9684 24 24.5 24C22.0316 24 20 21.9576 20 19.4C20 18.8852 20.2427 18.156 20.7345 17.2666C21.2119 16.4034 21.8611 15.4995 22.5299 14.6661C23.1958 13.8364 23.8642 13.0971 24.3676 12.5643C24.4132 12.516 24.4573 12.4695 24.5 12.4248C24.5427 12.4695 24.5868 12.516 24.6324 12.5643C25.1358 13.0971 25.8042 13.8364 26.4701 14.6661C27.1389 15.4995 27.7881 16.4034 28.2655 17.2666C28.7573 18.156 29 18.8852 29 19.4Z" fill="#BCC7DC" stroke="#0E1B32" stroke-width="2"/>
  <g clip-path="url(#HumidityMeter_svg__clip0_15792_12227)">
    <path fill-rule="evenodd" clip-rule="evenodd" d="M1.57324 22.0177C1.2571 21.9978 1 22.2565 1 22.5733C1 22.8586 1.21055 23.0981 1.48946 23.1585C2.48264 23.3737 3.39727 23.7997 4.18418 24.3874C4.55707 24.6658 5.08565 24.6641 5.41473 24.335C5.79243 23.9573 5.7372 23.3272 5.2671 23.0736C4.15562 22.474 2.90364 22.1013 1.57324 22.0177ZM7.37433 24.6461L7.35357 24.6254C7.3605 24.6323 7.36742 24.6392 7.37433 24.6461ZM9.00534 26.8829C8.72012 26.3294 7.98497 26.2648 7.54467 26.7051L7.04377 27.206C6.77083 27.4789 6.68556 27.8832 6.78136 28.2571C6.9241 28.8142 7 29.3981 7 29.9997C7 30.5292 7.40293 30.9997 7.93246 30.9997H9C9.55229 30.9997 10.0058 30.5506 9.94528 30.0016C9.82244 28.8882 9.49651 27.836 9.00534 26.8829Z" fill="#0E1B32"/>
    <path d="M7.79918 23.5058C8.25581 23.1934 8.80661 23.7442 8.49418 24.2008L4.13325 30.5745C3.80418 31.0554 3.1191 31.1191 2.70703 30.707L1.99992 29.9999L1.29281 29.2928C0.880829 28.8808 0.944493 28.1959 1.42535 27.8669L7.79918 23.5058Z" fill="#0E1B32"/>
  </g>
  <path d="M13 13C13 13 13.8825 12.5 14.5 12.5C15.1175 12.5 16 13 16 13M9 13C9 13 8.11747 12.5 7.5 12.5C6.88253 12.5 6 13 6 13" stroke="#0E1B32" stroke-width="2" stroke-linecap="round" stroke-linejoin="round"/>
  <path d="M10 17C10 17 10.8825 16.5 11.5 16.5C12.1175 16.5 13 17 13 17M6 17C6 17 5.11747 16.5 4.5 16.5C3.88253 16.5 3 17 3 17" stroke="#0E1B32" stroke-width="2" stroke-linecap="round" stroke-linejoin="round"/>
  <path d="M17 9C17 9 17.8825 8.5 18.5 8.5C19.1175 8.5 20 9 20 9M13 9C13 9 12.1175 8.5 11.5 8.5C10.8825 8.5 10 9 10 9M3 9C3 9 3.88253 8.5 4.5 8.5C5.11747 8.5 6 9 6 9" stroke="#0E1B32" stroke-width="2" stroke-linecap="round" stroke-linejoin="round"/>
  <path d="M6 5C6 5 6.88253 4.5 7.5 4.5C8.11747 4.5 9 5 9 5M16 5C16 5 15.1175 4.5 14.5 4.5C13.8825 4.5 13 5 13 5M20 5C20 5 20.8825 4.5 21.5 4.5C22.1175 4.5 23 5 23 5" stroke="#0E1B32" stroke-width="2" stroke-linecap="round" stroke-linejoin="round"/>
  <defs>
    <clipPath id="HumidityMeter_svg__clip0_15792_12227">
      <rect width="10" height="9" fill="white" transform="translate(1 22)"/>
    </clipPath>
  </defs>
</svg>
